<?xml version="1.0" encoding="utf-8"?><svg width="102" height="102" viewBox="0 0 102 102" xmlns="http://www.w3.org/2000/svg" xmlns:xlink="http://www.w3.org/1999/xlink"><svg width="34" height="34" viewBox="-5 -5 34 34" id="activity" xmlns="http://www.w3.org/2000/svg"><path fill="#5284ff" d="M22 11h-4c-.4 0-.8.3-.9.7L15 17.8 9.9 2.7C9.8 2.3 9.4 2 9 2s-.8.3-.9.7L5.3 11H2c-.6 0-1 .4-1 1s.4 1 1 1h4c.4 0 .8-.3.9-.7L9 6.2l5.1 15.2c.1.4.5.7.9.7s.8-.3.9-.7l2.8-8.3H22c.6 0 1-.4 1-1s-.4-1.1-1-1.1z"/></svg><svg width="34" height="34" viewBox="-5 -5 34 34" id="arrow-right" x="34" xmlns="http://www.w3.org/2000/svg"><path fill="#0e1a35" d="M19.9 12.4c.1-.2.1-.5 0-.8-.1-.1-.1-.2-.2-.3l-7-7c-.4-.4-1-.4-1.4 0s-.4 1 0 1.4l5.3 5.3H5c-.6 0-1 .4-1 1s.4 1 1 1h11.6l-5.3 5.3c-.4.4-.4 1 0 1.4.2.2.5.3.7.3s.5-.1.7-.3l7-7c.1-.1.2-.2.2-.3z"/></svg><svg width="34" height="34" viewBox="-5 -5 34 34" id="calendar" y="34" xmlns="http://www.w3.org/2000/svg"><path fill="#5284ff" d="M19 3h-2V2c0-.6-.4-1-1-1s-1 .4-1 1v1H9V2c0-.6-.4-1-1-1s-1 .4-1 1v1H5C3.3 3 2 4.3 2 6v14c0 1.7 1.3 3 3 3h14c1.7 0 3-1.3 3-3V6c0-1.7-1.3-3-3-3zM5 5h2v1c0 .6.4 1 1 1s1-.4 1-1V5h6v1c0 .6.4 1 1 1s1-.4 1-1V5h2c.6 0 1 .4 1 1v3H4V6c0-.6.4-1 1-1zm14 16H5c-.6 0-1-.4-1-1v-9h16v9c0 .6-.4 1-1 1z"/></svg><svg width="34" height="34" viewBox="-5 -5 34 34" id="check-circle" x="34" y="34" xmlns="http://www.w3.org/2000/svg"><path fill="#5284ff" d="M22 10.1c-.6 0-1 .4-1 1v.9c0 5-4 9-9 9s-9-4-9-9 4-9 9-9c1.3 0 2.5.3 3.7.8.5.2 1.1 0 1.3-.5s0-1.1-.5-1.3c-1.4-.6-2.9-1-4.5-1C5.9 1 1 5.9 1 12s4.9 11 11 11 11-4.9 11-11v-.9c0-.6-.4-1-1-1z"/><path fill="#5284ff" d="M9.7 10.3c-.4-.4-1-.4-1.4 0s-.4 1 0 1.4l3 3c.2.2.4.3.7.3s.5-.1.7-.3l10-10c.4-.4.4-1 0-1.4s-1-.4-1.4 0L12 12.6l-2.3-2.3z"/></svg><svg width="34" height="34" viewBox="-5 -5 34 34" id="log-in" x="68" xmlns="http://www.w3.org/2000/svg"><path fill="#dadee7" d="M19 2h-4c-.6 0-1 .4-1 1s.4 1 1 1h4c.6 0 1 .4 1 1v14c0 .6-.4 1-1 1h-4c-.6 0-1 .4-1 1s.4 1 1 1h4c1.7 0 3-1.3 3-3V5c0-1.7-1.3-3-3-3z"/><path fill="#dadee7" d="M15.9 12.4c.1-.2.1-.5 0-.8-.1-.1-.1-.2-.2-.3l-5-5c-.4-.4-1-.4-1.4 0s-.4 1 0 1.4l3.3 3.3H3c-.6 0-1 .4-1 1s.4 1 1 1h9.6l-3.3 3.3c-.4.4-.4 1 0 1.4.2.2.4.3.7.3s.5-.1.7-.3l5-5c.1-.1.2-.2.2-.3z"/></svg><svg width="34" height="34" viewBox="-5 -5 34 34" id="server" x="68" y="34" xmlns="http://www.w3.org/2000/svg"><path fill="#5284ff" d="M20 1H4C2.3 1 1 2.3 1 4v4c0 1.7 1.3 3 3 3h16c1.7 0 3-1.3 3-3V4c0-1.7-1.3-3-3-3zm1 7c0 .6-.4 1-1 1H4c-.6 0-1-.4-1-1V4c0-.6.4-1 1-1h16c.6 0 1 .4 1 1v4zm-1 5H4c-1.7 0-3 1.3-3 3v4c0 1.7 1.3 3 3 3h16c1.7 0 3-1.3 3-3v-4c0-1.7-1.3-3-3-3zm1 7c0 .6-.4 1-1 1H4c-.6 0-1-.4-1-1v-4c0-.6.4-1 1-1h16c.6 0 1 .4 1 1v4z"/><path fill="#5284ff" d="M5.3 5.3c-.2.2-.3.4-.3.7s.1.5.3.7c.2.2.4.3.7.3s.5-.1.7-.3c.2-.2.3-.4.3-.7s-.1-.5-.3-.7c-.4-.4-1-.4-1.4 0zm0 12c-.2.2-.3.4-.3.7s.1.5.3.7c.2.2.4.3.7.3s.5-.1.7-.3c.2-.2.3-.4.3-.7s-.1-.5-.3-.7c-.4-.4-1-.4-1.4 0z"/></svg><svg width="34" height="34" viewBox="-5 -5 34 34" id="x-circle" y="68" xmlns="http://www.w3.org/2000/svg"><path fill="#f83c7b" d="M12 1C5.9 1 1 5.9 1 12s4.9 11 11 11 11-4.9 11-11S18.1 1 12 1zm0 20c-5 0-9-4-9-9s4-9 9-9 9 4 9 9-4 9-9 9z"/><path fill="#f83c7b" d="M15.7 8.3c-.4-.4-1-.4-1.4 0L12 10.6 9.7 8.3c-.4-.4-1-.4-1.4 0s-.4 1 0 1.4l2.3 2.3-2.3 2.3c-.4.4-.4 1 0 1.4.2.2.4.3.7.3s.5-.1.7-.3l2.3-2.3 2.3 2.3c.2.2.5.3.7.3s.5-.1.7-.3c.4-.4.4-1 0-1.4L13.4 12l2.3-2.3c.4-.4.4-1 0-1.4z"/></svg></svg>